<svg width="19" height="19" viewBox="0 0 19 19" fill="none" xmlns="http://www.w3.org/2000/svg">
<circle cx="9.5" cy="9.5" r="9.5" fill="white"/>
<path d="M6.18068 6.47024V9.10309C6.18068 9.22129 6.09117 9.31769 5.98095 9.31769C5.87034 9.31769 5.78043 9.22129 5.78043 9.10309V6.93044C5.78043 6.78541 5.67175 6.66807 5.53536 6.66807C5.4052 6.66807 5.29733 6.77787 5.29107 6.91703V9.58928C5.29107 9.70831 5.20156 9.80386 5.09095 9.80386C4.98033 9.80386 4.89082 9.70831 4.89082 9.58928L4.89042 7.72339C4.89042 7.65132 4.86267 7.58592 4.8185 7.53814C4.77434 7.49037 4.71258 7.46102 4.64536 7.46102C4.57813 7.46102 4.51636 7.49035 4.47219 7.53814C4.43076 7.58256 4.40378 7.64292 4.40067 7.70999L4.40107 13.3537L4.96587 14.1391L7.56044 14.1417V6.75524C7.55498 6.61527 7.44671 6.50545 7.31575 6.50545C7.18287 6.50545 7.0746 6.61861 7.07108 6.76111V9.10311C7.07108 9.22131 6.98157 9.31772 6.87096 9.31772C6.76034 9.31772 6.67083 9.22131 6.67083 9.10311L6.67043 6.47695C6.67043 6.33194 6.561 6.2146 6.42575 6.2146C6.29285 6.2146 6.18459 6.32858 6.18068 6.47024ZM7.95795 6.70326L7.96069 10.2213L8.22882 9.96229V8.14754C8.22882 7.95642 8.30112 7.78373 8.41761 7.65884C8.53448 7.53396 8.69591 7.456 8.87413 7.456C9.05237 7.456 9.21381 7.53396 9.33028 7.65801C9.44715 7.78373 9.51907 7.95642 9.51907 8.14754V11.4895C9.51907 11.5323 9.50812 11.5717 9.48779 11.6052L7.96069 14.4107V15.7854C7.96069 15.9036 7.87118 16 7.76056 16H7.75549H4.86736C4.75715 16 4.66724 15.9036 4.66724 15.7854V15.7796V14.425L4.04303 13.5557C4.01489 13.5172 4.0012 13.4711 4.0012 13.425H4.0008L4 7.72339C4 7.53229 4.07232 7.35959 4.18917 7.23387C4.30566 7.10982 4.46708 7.03184 4.64532 7.03184C4.73209 7.03184 4.81494 7.05029 4.89078 7.08299L4.89038 6.93044C4.89038 6.73932 4.96269 6.56663 5.07918 6.44091C5.19565 6.31686 5.35708 6.2389 5.53532 6.2389C5.63031 6.2389 5.7206 6.26153 5.80149 6.30008C5.83119 6.18021 5.88982 6.07289 5.96918 5.98825C6.08605 5.86251 6.24748 5.78539 6.42571 5.78539C6.60395 5.78539 6.76538 5.86251 6.88185 5.98825C6.92993 6.03938 6.97018 6.09889 7.00108 6.16429C7.09448 6.10812 7.20158 6.07628 7.31571 6.07628C7.64955 6.0763 7.92707 6.3487 7.95795 6.70326ZM7.96069 10.7988V13.56L9.1192 11.4317V8.14754C9.1192 8.07546 9.09144 8.01008 9.04728 7.96227C9.00311 7.91451 8.94174 7.88515 8.87411 7.88515C8.80651 7.88515 8.74513 7.91449 8.70097 7.96227C8.6568 8.01006 8.62904 8.07544 8.62904 8.14754L8.62864 10.057C8.62864 10.1157 8.60636 10.1744 8.5626 10.2163L7.96069 10.7988ZM7.56044 14.5692L5.06751 14.5675V15.5709H7.56044V14.5692ZM12.9626 4.68484V7.31684C12.9626 7.43504 13.0517 7.53229 13.1627 7.53229C13.2729 7.53229 13.3628 7.43504 13.3628 7.31684V5.14504C13.3628 4.99917 13.4715 4.88266 13.6075 4.88266C13.7381 4.88266 13.8459 4.99246 13.8522 5.13162V7.80387C13.8522 7.92207 13.9413 8.01846 14.0523 8.01846C14.1625 8.01846 14.2525 7.92207 14.2525 7.80387V5.93798C14.2525 5.86591 14.2806 5.79968 14.3244 5.75189C14.3689 5.70496 14.4307 5.67477 14.4979 5.67477C14.5651 5.67477 14.6269 5.70494 14.6707 5.75189C14.7129 5.79715 14.7395 5.85751 14.7426 5.92459V11.5675L14.1774 12.3537L11.5829 12.3562V4.96984C11.5883 4.82986 11.6962 4.71921 11.8275 4.71921C11.9604 4.71921 12.0683 4.83321 12.0722 4.97571V7.31686C12.0722 7.43506 12.1621 7.53231 12.2724 7.53231C12.3826 7.53231 12.4725 7.43506 12.4725 7.31686V4.69152C12.4725 4.54651 12.5819 4.42917 12.7172 4.42917C12.8508 4.42917 12.9587 4.54234 12.9626 4.68484ZM11.1849 4.91785L11.1826 8.43589L10.9144 8.17604V6.36214C10.9144 6.17102 10.8417 5.99832 10.7253 5.8726C10.6088 5.74855 10.4477 5.67059 10.2687 5.67059C10.0905 5.67059 9.92947 5.74771 9.813 5.8726C9.69651 5.99832 9.62381 6.17102 9.62381 6.36214V9.70328C9.62381 9.74686 9.63554 9.78627 9.65586 9.81895L11.1826 12.6253V14C11.1826 14.1182 11.2725 14.2146 11.3827 14.2146H11.3882H14.2759C14.3861 14.2146 14.476 14.1182 14.476 14V13.9942V12.6396L15.1006 11.7703C15.128 11.7318 15.1421 11.6857 15.1421 11.6396H15.1429V5.93796C15.1429 5.74686 15.0709 5.57416 14.9545 5.44844C14.8372 5.32354 14.6762 5.24558 14.4979 5.24558C14.4111 5.24558 14.3283 5.26403 14.2525 5.29756V5.14501C14.2525 4.95389 14.1805 4.7812 14.0641 4.65548C13.9476 4.53059 13.7858 4.45345 13.6075 4.45345C13.5129 4.45345 13.4231 4.47526 13.3417 4.51465C13.312 4.39478 13.2534 4.28746 13.1737 4.20199C13.0572 4.07712 12.8961 4 12.7171 4C12.5389 4 12.3779 4.07712 12.2614 4.20203C12.2137 4.25316 12.1731 4.31266 12.1418 4.37804C12.0488 4.3219 11.9417 4.29006 11.8275 4.29006C11.4937 4.29004 11.2162 4.56329 11.1849 4.91785ZM11.1826 9.01341V11.7745L10.0241 9.6463V6.36211C10.0241 6.29003 10.0514 6.22379 10.096 6.17601C10.1405 6.12908 10.2015 6.09972 10.2688 6.09972C10.3368 6.09972 10.3977 6.12906 10.4423 6.17684C10.4869 6.22463 10.5142 6.29001 10.5142 6.36211V8.27157C10.515 8.33024 10.5369 8.38894 10.5807 8.43085L11.1826 9.01341ZM11.5828 12.7837L14.0758 12.7821V13.7854H11.5828V12.7837Z" fill="black"/>
</svg>
