<svg width="34" height="34" viewBox="0 0 34 34" fill="none" xmlns="http://www.w3.org/2000/svg">
<path d="M18.1333 25.1087H4.18399C3.81403 25.1087 3.45923 24.9617 3.19763 24.7001C2.93603 24.4385 2.78906 24.0837 2.78906 23.7137V5.57968C2.78906 5.20972 2.93603 4.85492 3.19763 4.59332C3.45923 4.33172 3.81403 4.18475 4.18399 4.18475H29.2927C29.6626 4.18475 30.0175 4.33172 30.2791 4.59332C30.5407 4.85492 30.6876 5.20972 30.6876 5.57968V23.7137C30.6876 24.0837 30.5407 24.4385 30.2791 24.7001C30.0175 24.9617 29.6626 25.1087 29.2927 25.1087H23.713M8.36877 9.76446H25.1079M8.36877 14.6467H12.5536M8.36877 19.529H11.1586" stroke="white" stroke-width="4" stroke-linecap="round" stroke-linejoin="round"/>
<path d="M20.9231 23.0163C22.0329 23.0163 23.0974 22.5754 23.8822 21.7906C24.667 21.0058 25.1078 19.9414 25.1078 18.8315C25.1078 17.7216 24.667 16.6572 23.8822 15.8724C23.0974 15.0876 22.0329 14.6467 20.9231 14.6467C19.8132 14.6467 18.7488 15.0876 17.964 15.8724C17.1792 16.6572 16.7383 17.7216 16.7383 18.8315C16.7383 19.9414 17.1792 21.0058 17.964 21.7906C18.7488 22.5754 19.8132 23.0163 20.9231 23.0163V23.0163Z" stroke="white" stroke-width="4"/>
<path d="M20.9227 27.8985L23.7125 29.2935V21.9506C23.7125 21.9506 22.9174 23.0163 20.9227 23.0163C18.9279 23.0163 18.1328 21.9701 18.1328 21.9701V29.2935L20.9227 27.8985Z" stroke="white" stroke-width="4" stroke-linecap="round" stroke-linejoin="round"/>
</svg>
