<svg width="34" height="34" viewBox="0 0 34 34" fill="none" xmlns="http://www.w3.org/2000/svg">
<path d="M29.2008 2.78101H8.34327C7.6057 2.78101 6.89834 3.074 6.3768 3.59554C5.85526 4.11708 5.56226 4.82444 5.56226 5.56201V9.73353H2.78125V12.5145H5.56226V15.2955H2.78125V18.0765H5.56226V20.8576H2.78125V23.6386H5.56226V27.8101C5.56226 28.5476 5.85526 29.255 6.3768 29.7765C6.89834 30.2981 7.6057 30.5911 8.34327 30.5911H29.2008C29.5696 30.5911 29.9233 30.4446 30.1841 30.1838C30.4448 29.923 30.5913 29.5694 30.5913 29.2006V4.17151C30.5913 3.80273 30.4448 3.44905 30.1841 3.18827C29.9233 2.9275 29.5696 2.78101 29.2008 2.78101ZM18.0768 6.95113C20.3683 6.95113 22.2483 8.8297 22.2483 11.1226C22.2443 12.2279 21.8035 13.2867 21.0221 14.0684C20.2407 14.85 19.182 15.2911 18.0768 15.2955C15.7866 15.2955 13.9053 13.4142 13.9053 11.1226C13.9053 8.8297 15.7866 6.95113 18.0768 6.95113ZM26.4198 25.0291H9.73377V23.9862C9.73377 20.9007 13.4951 17.7289 18.0768 17.7289C22.6585 17.7289 26.4198 20.9007 26.4198 23.9862V25.0291Z" fill="white"/>
</svg>
