<svg width="14" height="14" viewBox="0 0 14 14" fill="none" xmlns="http://www.w3.org/2000/svg">
<path d="M2.86763 13.6366C2.80395 13.6717 2.72696 13.6766 2.65908 13.6499C2.50301 13.5882 2.36795 13.5433 2.25317 13.4676C1.56873 13.0152 0.985764 12.4549 0.530868 11.7669C0.243234 11.3321 0.264229 11.0039 0.623947 10.6427C2.91802 8.33959 5.21629 6.04139 7.50896 3.73758C7.71961 3.52579 7.89667 3.50194 8.13532 3.70743C8.49924 4.02091 8.91914 4.27339 9.26206 4.60651C9.60638 4.94103 9.90031 5.33237 10.1914 5.71809C10.5022 6.12976 10.4875 6.17604 10.1292 6.53441C8.25149 8.41603 6.37382 10.2977 4.49616 12.1793C4.10285 12.5734 3.71794 12.9781 3.31063 13.3568C3.18536 13.4739 3.023 13.551 2.86833 13.6359L2.86763 13.6366Z" fill="#fff"/>
<path d="M12.906 0.38672C13.1922 0.690387 13.3875 0.888157 13.6234 1.14975C13.7507 1.29141 13.5849 1.61121 13.3378 1.75007C13.1916 1.83212 13.0376 1.91628 12.9221 2.0348C11.9647 3.01383 11.0151 4.00058 10.0843 4.96278C9.71125 4.60371 9.41172 4.31547 9.073 3.99006C9.4992 3.57278 9.9219 3.16391 10.339 2.75014C10.9073 2.18558 11.4937 1.63856 12.0319 1.04525C12.0998 0.970211 12.2062 0.890963 12.3084 0.714232C12.5498 0.298354 12.8087 0.285029 12.9053 0.387421L12.906 0.38672Z" fill="#fff"/>
</svg>
